<?xml version="1.0" encoding="utf-8"?>
<!-- Generator: Adobe Illustrator 21.1.0, SVG Export Plug-In . SVG Version: 6.00 Build 0)  -->
<svg version="1.1" id="Laag_1" xmlns="http://www.w3.org/2000/svg" xmlns:xlink="http://www.w3.org/1999/xlink" x="0px" y="0px"
	 viewBox="0 0 600 396.85" style="enable-background:new 0 0 841.89 396.85;" xml:space="preserve">
<g>
	<path class="st0" d="M144.455,248.24c-12.06-8.687-26.358-12.897-42.62-12.897c-35.609,0-61.127,25.236-61.127,60.287
		c0,39.812,26.357,65.885,66.734,65.885c13.179,0,24.113-2.242,40.655-8.693l6.449,29.725c-11.773,5.325-16.544,7.003-24.952,8.977
		c-8.973,1.957-18.788,3.078-29.722,3.078c-28.878,0-49.628-7.288-67.014-22.989c-19.623-17.664-31.116-45.148-31.116-74.026
		c0-26.909,10.09-51.304,28.316-69.253c18.505-18.225,39.253-25.79,69.815-25.79c23.553,0,42.056,5.605,58.035,17.66L144.455,248.24
		z"/>
	<path class="st0" d="M315.963,390.955v-79.351h-95.05v79.351h-35.327v-185.05h35.327v74.023h95.05v-74.023h35.328v185.05H315.963z"
		/>
	<path class="st0" d="M393.748,390.955v-185.05h112.716v30.001h-77.385v45.7h63.367v29.998h-63.367v49.352h81.026v29.998H393.748z"
		/>
	<polygon class="st1" points="548.085,182.517 548.135,262.536 524.63,269.367 524.63,187.952 	"/>
	<path class="st2" d="M293.664,47.778l0.066,35.972c0,0,46.458,39.201,47.916,44.734c1.458,5.534,7.574-41.939,7.574-41.939
		l-36.698-39.031L293.664,47.778z"/>
	<polygon class="st2" points="256.46,133.879 256.444,186.216 266.545,197.468 266.499,143.919 	"/>
	<path class="st1" d="M578.692,8.925c0,0-72.216,14.174-168.349,56.212l0.549,52.697c48.152-23.277,105.955-43.682,167.766-63.086
		L578.692,8.925z"/>
	<path class="st3" d="M351.579,91.716l-0.697,1.758c0.231-0.122,0.464-0.24,0.697-0.362V91.716z"/>
	<path class="st3" d="M357.668,88.522l-2.384-0.87c0-3.624-2.442,0.878-2.442,0.878l-1.263,3.185v1.395
		c-0.233,0.123-0.466,0.24-0.697,0.362c-27.383,14.153-55.756,30.403-84.259,49.071l-0.031,54.916
		c43.435-25.054,69.508-40.201,85.122-48.701c3.583-1.952,6.021-4.122,5.954-8.756C357.633,137.603,357.668,97.441,357.668,88.522z"
		/>
	<path class="st2" d="M410.215,56.126l8.876-4.082l-5.17,15.831l27.356,27.947l87.884,80.95l-4.53,11.262v81.294
		c0,0-118.297-130.931-122.99-136.824c-2.168-2.725-2.453-6.22-2.453-10.781c0-18.496,0.073-55.865,0.073-55.865L410.215,56.126z"/>
	<path class="st4" d="M352.648,80.699c-7.909-6.854-27.955-24.372-45.021-37.244l-14.008,4.342c0,0,24.033,18.191,43.736,37.806
		c1.163,1.157,1.586,3.039-0.351,4.086c-41.11,22.235-74.377,39.971-80.614,44.109l10.233,10.814c0,0,43.038-24.07,84.04-46.869
		C359.763,92.685,359.653,86.77,352.648,80.699z"/>
	<path class="st5" d="M421.836,63.418c9.366-3.889,76.359-31.165,156.903-54.541l-11.065-6.628c0,0-68.174,17.798-157.285,53.328
		c-10.354,4.13-15.435,9.443-6.825,18.056c39.376,39.38,80.131,79.151,121.014,114.347l23.516-5.473
		c0,0-69.571-61.197-126.205-113.121C418.882,66.628,419.484,64.394,421.836,63.418z"/>
</g>
</svg>
